<?xml version="1.0" standalone="no"?>
<!DOCTYPE svg PUBLIC "-//W3C//DTD SVG 20010904//EN"
 "http://www.w3.org/TR/2001/REC-SVG-20010904/DTD/svg10.dtd">
<svg version="1.0" xmlns="http://www.w3.org/2000/svg"
 width="515.000000pt" height="320.000000pt" viewBox="0 0 515.000000 320.000000"
 preserveAspectRatio="xMidYMid meet">

<g transform="translate(0.000000,320.000000) scale(0.100000,-0.100000)"
fill="#377cfb" stroke="none">
<path d="M4034 2309 c-33 -9 -67 -38 -99 -84 l-21 -28 -26 26 c-49 49 -133 25
-178 -49 -27 -42 -54 -44 -75 -4 -38 73 -66 12 -90 -201 -7 -59 -36 -91 -78
-87 -47 5 -58 35 -51 138 5 68 3 89 -9 105 -37 48 -83 -31 -98 -167 -9 -84
-13 -96 -40 -120 -16 -16 -38 -28 -48 -28 -37 0 -46 28 -44 126 4 135 -16 173
-65 121 -25 -26 -52 -123 -52 -185 0 -85 -66 -158 -157 -175 -38 -8 -63 0 -63
18 0 8 23 40 51 72 65 74 99 143 99 206 l0 47 -37 -18 c-21 -11 -65 -22 -98
-26 -33 -4 -75 -16 -93 -26 -38 -23 -63 -25 -79 -9 -7 7 -18 9 -26 6 -10 -4
-16 -33 -20 -109 -9 -152 -37 -218 -92 -218 -42 0 -59 39 -51 123 8 92 -2 132
-34 132 -46 0 -63 -43 -86 -229 -9 -75 -73 -123 -112 -84 -15 15 -15 91 -1
158 21 99 -9 127 -75 69 -33 -28 -38 -30 -70 -19 -78 26 -179 -37 -215 -135
-11 -29 -23 -77 -27 -107 -12 -89 -91 -141 -138 -89 -34 37 -44 219 -15 272 5
10 23 19 41 21 43 4 60 37 55 107 -3 44 -9 59 -31 78 -52 44 -135 19 -201 -61
-35 -44 -104 -185 -105 -216 0 -8 -4 -21 -9 -29 -7 -11 -15 -3 -31 30 -71 141
-210 190 -367 130 -192 -72 -274 -292 -158 -419 31 -34 38 -37 90 -37 53 0 59
3 91 37 40 44 48 98 15 98 -28 0 -61 47 -61 87 0 48 45 93 94 93 30 0 40 -6
57 -32 28 -45 23 -180 -10 -253 -57 -128 -174 -183 -243 -114 -27 26 -35 29
-55 20 -64 -29 -84 -148 -38 -226 47 -81 138 -97 243 -44 130 65 187 184 199
417 6 131 16 153 51 118 14 -13 18 -47 23 -179 4 -89 7 -163 8 -165 0 -1 12
-7 25 -12 34 -13 90 5 103 33 6 12 15 94 21 182 10 173 22 218 56 213 20 -3
21 -9 21 -153 0 -135 2 -154 22 -191 26 -49 67 -69 118 -60 44 9 99 62 115
113 18 56 26 59 45 19 55 -116 186 -69 227 82 15 51 24 53 32 8 10 -55 41 -86
85 -86 50 0 84 27 112 90 22 50 39 64 39 35 0 -9 11 -27 25 -40 33 -34 84 -33
125 1 43 36 56 67 91 202 16 64 40 133 53 153 35 52 123 89 141 58 13 -20 -5
-55 -65 -124 -33 -38 -71 -92 -85 -119 -28 -57 -33 -127 -10 -146 12 -10 18
-6 36 24 24 41 58 54 95 37 86 -39 196 24 244 140 l13 31 21 -44 c27 -56 62
-74 109 -55 42 18 74 58 88 111 20 71 21 72 35 25 7 -25 23 -54 34 -64 47 -43
135 -4 172 75 13 27 26 49 29 50 4 0 9 -13 12 -30 4 -16 18 -36 31 -45 21 -14
31 -15 61 -5 41 14 51 39 41 108 -18 129 -18 143 -1 187 17 47 39 65 74 65 33
0 43 -32 35 -124 -10 -131 18 -186 89 -172 66 13 85 70 51 152 -34 80 -3 186
60 209 43 15 59 -14 53 -92 -9 -126 24 -203 88 -203 47 0 96 38 126 98 27 55
63 197 54 213 -12 18 -33 8 -45 -21 -22 -53 -78 -67 -105 -27 -11 17 -15 45
-13 93 2 77 -11 110 -48 124 -29 12 -38 11 -80 -1z m-1924 -669 c31 -31 27
-85 -9 -121 -31 -30 -71 -38 -89 -16 -35 42 -14 127 36 146 38 13 40 13 62 -9z"/>
<path d="M2465 2113 c-69 -13 -103 -53 -89 -107 15 -60 100 -71 151 -20 51 51
8 140 -62 127z"/>
<path d="M2972 1409 c-22 -7 -32 -15 -28 -24 2 -7 8 -30 12 -50 8 -43 18 -49
59 -35 29 9 28 10 -7 4 -35 -4 -38 -3 -38 20 0 17 8 27 28 35 l27 11 -31 -6
c-23 -4 -33 -1 -38 11 -3 10 1 18 12 21 61 19 64 30 4 13z"/>
<path d="M2868 1383 c-21 -5 -22 -18 -7 -79 10 -39 14 -44 33 -38 38 12 48 26
42 62 -8 54 -24 67 -68 55z m48 -27 c23 -36 15 -71 -16 -71 -20 0 -26 7 -33
39 -7 29 -6 40 4 47 21 13 27 11 45 -15z"/>
<path d="M2780 1299 c0 -56 1 -59 16 -44 10 9 26 14 36 12 22 -6 22 -7 -12 50
-14 24 -28 43 -32 43 -5 0 -8 -27 -8 -61z m38 -20 c-22 -15 -28 -10 -28 24 l1
32 20 -24 c15 -19 17 -26 7 -32z"/>
<path d="M2710 1308 l0 -33 -25 30 -25 30 6 -50 c8 -58 14 -71 14 -29 l0 29
20 -25 20 -25 0 33 c0 23 4 31 12 26 8 -5 9 -2 5 10 -4 10 -7 22 -7 27 0 5 -4
9 -10 9 -5 0 -10 -15 -10 -32z"/>
<path d="M2595 1313 c-11 -3 -24 -8 -28 -12 -9 -9 11 -98 23 -106 12 -7 70 6
70 16 0 4 -14 3 -31 -3 -33 -12 -34 -11 -43 18 -5 16 0 22 21 31 l28 11 -30
-2 c-46 -2 -45 28 2 41 37 10 27 15 -12 6z"/>
<path d="M2520 1259 c0 -17 -4 -28 -10 -24 -15 9 -12 -8 5 -31 14 -18 14 -17
15 16 l1 35 20 -40 c20 -43 16 -12 -7 43 -16 40 -24 41 -24 1z"/>
<path d="M2474 1245 c3 -22 6 -50 6 -62 0 -13 3 -23 8 -23 13 0 7 99 -7 112
-11 11 -13 6 -7 -27z"/>
<path d="M2740 1270 c0 -8 5 -22 10 -30 9 -13 10 -13 10 0 0 8 -5 22 -10 30
-9 13 -10 13 -10 0z"/>
<path d="M2398 1263 c-23 -6 -28 -26 -17 -66 13 -47 31 -62 58 -47 23 12 27
43 12 83 -10 26 -26 35 -53 30z m52 -73 c0 -52 -44 -46 -59 8 -8 25 -6 36 7
48 15 15 17 15 34 -6 10 -12 18 -35 18 -50z"/>
<path d="M2346 1218 c2 -16 0 -28 -4 -28 -4 0 -17 -3 -28 -6 -17 -4 -23 0 -28
21 -4 15 -9 25 -11 23 -5 -5 21 -108 29 -116 4 -3 3 8 0 25 -5 26 -2 32 15 38
26 8 41 -1 41 -26 0 -10 4 -19 9 -19 8 0 1 33 -22 100 -2 8 -3 3 -1 -12z"/>
</g>
</svg>
